<svg width="16" height="17" viewBox="0 0 16 17" fill="none" xmlns="http://www.w3.org/2000/svg">
<path fill-rule="evenodd" clip-rule="evenodd" d="M11.5 2.45703H14V4.45703H11.5V2.45703ZM10.5 4.45703V2.45703H8.5V4.45703H10.5ZM7.5 4.45703V2.45703H5.5V4.45703H7.5ZM4.5 4.45703V2.45703H2V4.45703H4.5ZM2 5.45703H5H8H11H14V11.457H11H8H5H2V5.45703ZM11.5 12.457H14V14.457H11.5V12.457ZM8.5 12.457H10.5V14.457H8.5V12.457ZM5.5 14.457V12.457H7.5V14.457H5.5ZM2 12.457H4.5L4.5 14.457H2V12.457ZM1 4.95703V11.957V14.457C1 15.0093 1.44772 15.457 2 15.457H5H8H11H14C14.5523 15.457 15 15.0093 15 14.457V11.957V4.95703V2.45703C15 1.90475 14.5523 1.45703 14 1.45703H11H8H5H2C1.44772 1.45703 1 1.90475 1 2.45703V4.95703ZM6.22361 6.00982C6.06861 5.93232 5.88454 5.9406 5.73713 6.03171C5.58973 6.12281 5.5 6.28374 5.5 6.45703V10.457C5.5 10.6303 5.58973 10.7913 5.73713 10.8824C5.88454 10.9735 6.06861 10.9817 6.22361 10.9042L10.2236 8.90424C10.393 8.81955 10.5 8.64642 10.5 8.45703C10.5 8.26765 10.393 8.09451 10.2236 8.00982L6.22361 6.00982ZM8.88197 8.45703L6.5 9.64801V7.26605L8.88197 8.45703Z" fill="#7D7D7D"/>
</svg>
