<svg width="86" height="24" viewBox="0 0 86 24" fill="none" xmlns="http://www.w3.org/2000/svg">
<path d="M41.0542 0H0V8.37208H41.0542V0Z" fill="#004379"/>
<path fill-rule="evenodd" clip-rule="evenodd" d="M6.44937 3.84498L5.82921 5.39537H7.06952L6.44937 3.84498ZM6.51138 1.61243L9.05402 7.06978H7.75169L7.3796 6.13955H5.58115L5.20906 7.06978H3.96875L6.51138 1.61243ZM16.0619 3.72094L16.6201 2.54264L18.6046 7.06976H17.4263L16.8061 5.5814H15.1937L15.5038 4.89922H16.5581L16.0619 3.72094ZM22.6356 2.72866H21.6433V5.14726L18.9146 2.60463V7.06974H19.9069V4.83718L22.6356 7.25579V2.72866ZM9.30223 2.72867V7.13177H10.2325C11.7208 7.13177 12.6511 6.20154 12.6511 4.96123C12.6511 3.72092 11.8448 2.72867 10.0464 2.72867H9.30223ZM10.2325 6.20154V3.53488C11.1627 3.47286 11.5968 4.15503 11.5968 4.96123C11.6588 5.70542 11.2247 6.26355 10.2325 6.20154ZM24.2478 3.53488H23.0075V2.72867H26.4803V3.53488H25.3021V7.06975H24.2478V3.53488ZM26.8526 7.06975V2.72867H29.4572V3.53488H27.8448V4.46511H29.2712V5.33332H27.8448V6.26355H29.4572V7.06975H26.8526ZM36.3409 4.46511V2.72867H37.3331V7.06975H36.3409V5.33332H34.6665V7.06975H33.6742V2.72867H34.6665V4.46511H36.3409ZM12.1548 2.72867L14.3873 7.19378L14.9455 6.0775L13.3331 2.72867H12.1548ZM29.6431 4.8992C29.6431 6.32555 30.6974 7.13176 32.0617 7.13176C32.5579 7.13176 32.8679 7.00772 33.116 6.88369V5.82943C32.93 6.07749 32.4959 6.26354 32.1238 6.26354C31.3176 6.26354 30.6974 5.7054 30.6974 4.83718C30.6974 3.96897 31.3796 3.47285 32.1238 3.47285C32.5579 3.47285 32.93 3.65889 33.116 3.90695V2.91471C32.93 2.72866 32.6199 2.60463 32.0617 2.60463C30.7594 2.66665 29.6431 3.65889 29.6431 4.8992Z" fill="white"/>
<path fill-rule="evenodd" clip-rule="evenodd" d="M36.9613 13.2093C36.9613 12.4651 37.5194 11.907 38.2636 11.907C39.0078 11.907 39.5659 12.4651 39.5659 13.2093C39.5659 13.9535 39.0078 14.5116 38.2636 14.5116C37.5194 14.4496 36.9613 13.9535 36.9613 13.2093ZM37.1473 15.6279H39.4419V23.7519H37.1473V15.6279ZM17.9843 20.6511L16.682 22.3876C17.6742 23.3798 18.9766 23.9379 20.1549 24C22.4494 24 23.8138 22.4496 23.8138 20.6511C23.8138 19.1628 23.1316 18.2945 21.9533 17.7364L20.775 17.1783L20.6293 17.1113C19.8953 16.7747 19.3486 16.524 19.3486 16C19.3486 15.4418 19.7828 15.1318 20.4649 15.1318C21.2091 15.1318 21.8293 15.3798 22.4494 15.938L23.5657 14.3256C22.7595 13.3953 21.5812 12.8992 20.4649 12.8992C18.4184 12.8992 16.9921 14.3256 16.9921 16.124C16.9921 17.6744 17.9223 18.6046 18.9145 19.0387L20.1549 19.5969L20.2576 19.6408C21.0621 19.9846 21.5192 20.1799 21.5192 20.7752C21.5192 21.3333 21.1471 21.7054 20.2789 21.7054C19.5347 21.7054 18.6665 21.2713 17.9843 20.6511ZM0.620117 13.0853H2.97669L3.59685 17.9225L3.96894 21.2713H4.03096C4.09298 20.8992 4.15501 20.5202 4.21703 20.1411C4.34105 19.3832 4.46507 18.6253 4.5891 17.9225L5.58135 13.0853H7.50383L8.49606 17.9225C8.62011 18.6254 8.74416 19.3835 8.86821 20.1415L8.86825 20.1418L8.86833 20.1423L8.86834 20.1423L8.86834 20.1423L8.86834 20.1423L8.86834 20.1424L8.86835 20.1424L8.86835 20.1424L8.86835 20.1424L8.86836 20.1424L8.86836 20.1424L8.86836 20.1425C8.93031 20.521 8.99226 20.8996 9.05421 21.2713H9.11621C9.15754 20.8993 9.19888 20.5205 9.24021 20.1416L9.24025 20.1413C9.32293 19.3833 9.40562 18.6253 9.48831 17.9225L10.1085 13.0853H12.279L10.6046 23.6899H7.68987L6.82166 19.0388C6.78302 18.7876 6.73836 18.5305 6.69331 18.271L6.69331 18.271V18.271L6.69331 18.271C6.59374 17.6976 6.49226 17.1132 6.44956 16.5581H6.38754C6.32553 16.9612 6.26351 17.3799 6.20149 17.7985C6.13948 18.2171 6.07746 18.6357 6.01544 19.0388L5.20925 23.6899H2.35654L0.620117 13.0853ZM13.1473 13.0853H15.4418V23.6899H13.1473V13.0853ZM25.1163 13.0853H31.1938V15.1938H27.4108V17.1783H30.6356V19.2868H27.4108V21.5194H31.3178V23.6279H25.1163V13.0853ZM35.969 18.7287H32.3101V20.5271H35.969V18.7287ZM41.7365 20.6511L40.4342 22.3876C41.4264 23.3798 42.7908 23.9379 43.9071 24C46.2016 24 47.566 22.4496 47.566 20.6511C47.566 19.1628 46.8838 18.2945 45.7055 17.7364L44.5272 17.1783L44.3816 17.1113C43.6475 16.7747 43.1009 16.524 43.1009 16C43.1009 15.4418 43.535 15.1318 44.2171 15.1318C44.9613 15.1318 45.5815 15.3798 46.2016 15.938L47.3179 14.3256C46.5117 13.3953 45.3334 12.8992 44.2171 12.8992C42.1706 12.8992 40.7443 14.3256 40.7443 16.124C40.7443 17.6744 41.6745 18.6046 42.6668 19.0387L43.9071 19.5969L44.0099 19.6408C44.8143 19.9846 45.2714 20.1799 45.2714 20.7752C45.2714 21.3333 44.8993 21.7054 44.0311 21.7054C43.2869 21.7054 42.4187 21.2713 41.7365 20.6511ZM48.3099 19.6589C48.3099 16.9922 49.9843 15.3798 51.7828 15.3798C53.8913 15.3798 54.9456 17.0543 54.9456 19.2868C54.9456 19.7209 54.8836 20.155 54.8216 20.3411H50.5425C50.7285 21.4574 51.4107 21.8915 52.3409 21.8915C52.8371 21.8915 53.3332 21.7054 53.8913 21.3953L54.6355 22.9457C53.8913 23.5659 52.8991 23.876 52.0309 23.876C49.9223 23.938 48.3099 22.3256 48.3099 19.6589ZM52.9611 18.7287C52.9611 17.9225 52.651 17.3023 51.7828 17.3023C51.1626 17.3023 50.6045 17.7364 50.4185 18.7287H52.9611ZM57.7984 15.6279H55.9379V23.7519H58.2325V19.1007C58.6046 18.0465 59.2247 17.6744 59.7829 17.6744C60.0929 17.6744 60.341 17.7364 60.5891 17.7984L60.9158 15.8924L63.2557 23.7519H65.9224L68.279 15.6279H66.1084L65.1782 19.3488L65.1779 19.3502L65.1779 19.3502L65.1778 19.3503C64.9919 20.156 64.806 20.9618 64.62 21.8295H64.558C64.3722 20.9622 64.1863 20.1568 64.0005 19.3514L63.9999 19.3488L63.1317 15.6279H60.9612L60.9612 15.6279C60.7751 15.5039 60.5271 15.4418 60.0929 15.4418C59.3488 15.4418 58.5425 16 57.9844 17.0542H57.9224L57.7984 15.6279ZM70.1394 11.907C69.3952 11.907 68.837 12.4651 68.837 13.2093C68.837 13.9535 69.3952 14.4496 70.1394 14.5116C70.8836 14.5116 71.4417 13.9535 71.4417 13.2093C71.4417 12.4651 70.8836 11.907 70.1394 11.907ZM71.3177 15.6279H69.0231V23.7519H71.3177V15.6279ZM72.31 19.6589C72.31 16.9922 74.1084 15.3798 76.1549 15.3798C77.0231 15.3798 77.7053 15.7519 78.2634 16.2481L77.2091 17.8605C76.8991 17.5504 76.589 17.4264 76.2789 17.4264C75.2867 17.4264 74.6665 18.2946 74.6665 19.6589C74.6665 21.0232 75.3487 21.8294 76.2169 21.8294C76.651 21.8294 77.0851 21.5814 77.4572 21.2713L78.3255 22.9457C77.6433 23.6279 76.713 23.876 75.9068 23.876C73.9223 23.938 72.31 22.3256 72.31 19.6589ZM81.8603 15.3798C80.0618 15.3798 78.3874 16.9922 78.3874 19.6589C78.3874 22.3256 80.0619 23.938 82.1084 23.876C82.9766 23.876 83.9688 23.5659 84.713 22.9457L83.9688 21.3953C83.4107 21.7054 82.9146 21.8915 82.4184 21.8915C81.4882 21.8915 80.806 21.4574 80.62 20.3411H84.8991C84.9611 20.155 85.0231 19.7209 85.0231 19.2868C85.0231 17.0543 83.9688 15.3798 81.8603 15.3798ZM81.9223 17.3023C82.7905 17.3023 83.1006 17.9225 83.1006 18.7287H80.558C80.744 17.7364 81.3022 17.3023 81.9223 17.3023Z" fill="#004379"/>
</svg>
