<svg width="16" height="17" viewBox="0 0 16 17" fill="none" xmlns="http://www.w3.org/2000/svg">
<path fill-rule="evenodd" clip-rule="evenodd" d="M4 4.45703C4 3.35246 4.89543 2.45703 6 2.45703C7.10457 2.45703 8 3.35246 8 4.45703C8 5.5616 7.10457 6.45703 6 6.45703C4.89543 6.45703 4 5.5616 4 4.45703ZM6 1.45703C4.34315 1.45703 3 2.80018 3 4.45703C3 5.40112 3.43609 6.24335 4.11782 6.79327L4.09873 6.80043C3.49621 7.02746 2.94587 7.36129 2.48019 7.78491C2.01441 8.20862 1.64213 8.71423 1.38714 9.27425C1.13207 9.83443 1 10.4368 1 11.0464C1 11.3225 1.22386 11.5464 1.5 11.5464H5.99531H6.76342C6.66593 11.6224 6.57143 11.7019 6.48019 11.7849C6.01441 12.2086 5.64213 12.7142 5.38714 13.2743C5.13207 13.8344 5 14.4368 5 15.0464C5 15.3225 5.22386 15.5464 5.5 15.5464H9.99531H14.4906C14.7668 15.5464 14.9906 15.3225 14.9906 15.0464C14.9906 14.4368 14.8586 13.8344 14.6035 13.2742C14.3485 12.7142 13.9762 12.2086 13.5104 11.7849C13.0448 11.3613 12.4944 11.0275 11.8919 10.8004L11.8792 10.7957C12.5626 10.2458 13 9.40249 13 8.45703C13 6.80018 11.6569 5.45703 10 5.45703C9.53764 5.45703 9.09971 5.56163 8.70858 5.74845C8.8954 5.35732 9 4.91939 9 4.45703C9 2.80018 7.65685 1.45703 6 1.45703ZM7.12325 7.60321C6.75805 7.50655 6.37827 7.45703 5.99531 7.45703C5.46441 7.45703 4.93964 7.5522 4.45133 7.7362C3.96306 7.92019 3.52228 8.1888 3.1531 8.52463C2.78402 8.86038 2.49406 9.25638 2.29723 9.68865C2.17144 9.96491 2.085 10.2531 2.03901 10.5464H5.99531H7.84717C7.32282 10.0062 7 9.26931 7 8.45703C7 8.1604 7.04305 7.87383 7.12325 7.60321ZM9.10999 11.5464H10.4906C10.557 11.5464 10.6204 11.5334 10.6783 11.5099C10.9734 11.556 11.2622 11.6318 11.5393 11.7362C12.0276 11.9202 12.4683 12.1888 12.8375 12.5246C13.2066 12.8604 13.4966 13.2564 13.6934 13.6886C13.8192 13.9649 13.9056 14.2531 13.9516 14.5464H9.99531H6.03901C6.085 14.2531 6.17144 13.9649 6.29723 13.6886C6.49406 13.2564 6.78402 12.8604 7.1531 12.5246C7.52228 12.1888 7.96306 11.9202 8.45133 11.7362C8.66476 11.6558 8.88516 11.5923 9.10999 11.5464ZM10 6.45703C8.89543 6.45703 8 7.35246 8 8.45703C8 9.5616 8.89543 10.457 10 10.457C11.1046 10.457 12 9.5616 12 8.45703C12 7.35246 11.1046 6.45703 10 6.45703Z" fill="#7D7D7D"/>
</svg>
