<svg width="16" height="17" viewBox="0 0 16 17" fill="none" xmlns="http://www.w3.org/2000/svg">
<path fill-rule="evenodd" clip-rule="evenodd" d="M10 6.45703C10 8.66617 8.20914 10.457 6 10.457C3.79086 10.457 2 8.66617 2 6.45703C2 4.24789 3.79086 2.45703 6 2.45703C8.20914 2.45703 10 4.24789 10 6.45703ZM9.16437 10.3285C8.30243 11.0338 7.20063 11.457 6 11.457C3.23858 11.457 1 9.21845 1 6.45703C1 3.69561 3.23858 1.45703 6 1.45703C8.76142 1.45703 11 3.69561 11 6.45703C11 7.65767 10.5768 8.75946 9.87147 9.6214L14.8536 14.6035C15.0488 14.7987 15.0488 15.1153 14.8536 15.3106C14.6583 15.5058 14.3417 15.5058 14.1464 15.3106L9.16437 10.3285Z" fill="#7D7D7D"/>
</svg>
